<mxfile host="app.diagrams.net" modified="2020-11-07T21:49:24.655Z" agent="5.0 (Windows NT 10.0; Win64; x64) AppleWebKit/537.36 (KHTML, like Gecko) Chrome/86.0.4240.183 Safari/537.36" etag="ThWd526vLO5diY547s5m" version="13.8.8" type="github">
  <diagram id="Xolxl87eCMREqCCSv1F9" name="Page-1">
    <mxGraphModel dx="782" dy="511" grid="1" gridSize="10" guides="1" tooltips="1" connect="1" arrows="1" fold="1" page="1" pageScale="1" pageWidth="850" pageHeight="1100" math="0" shadow="0">
      <root>
        <mxCell id="0" />
        <mxCell id="1" parent="0" />
        <mxCell id="5EFGheqelh7LaM5aYG0a-1" value="" style="rounded=1;whiteSpace=wrap;html=1;" vertex="1" parent="1">
          <mxGeometry x="100" y="120" width="290" height="180" as="geometry" />
        </mxCell>
        <mxCell id="5EFGheqelh7LaM5aYG0a-5" style="edgeStyle=orthogonalEdgeStyle;rounded=0;orthogonalLoop=1;jettySize=auto;html=1;entryX=0.5;entryY=0;entryDx=0;entryDy=0;" edge="1" parent="1" source="5EFGheqelh7LaM5aYG0a-2" target="5EFGheqelh7LaM5aYG0a-3">
          <mxGeometry relative="1" as="geometry" />
        </mxCell>
        <mxCell id="5EFGheqelh7LaM5aYG0a-2" value="Backend Service" style="text;html=1;fillColor=none;align=center;verticalAlign=middle;whiteSpace=wrap;rounded=0;strokeColor=#000000;" vertex="1" parent="1">
          <mxGeometry x="210" y="150" width="60" height="40" as="geometry" />
        </mxCell>
        <mxCell id="5EFGheqelh7LaM5aYG0a-3" value="backend-1" style="text;html=1;fillColor=none;align=center;verticalAlign=middle;whiteSpace=wrap;rounded=0;strokeColor=#000000;" vertex="1" parent="1">
          <mxGeometry x="150" y="230" width="70" height="20" as="geometry" />
        </mxCell>
        <mxCell id="5EFGheqelh7LaM5aYG0a-6" style="edgeStyle=orthogonalEdgeStyle;rounded=0;orthogonalLoop=1;jettySize=auto;html=1;exitX=0.5;exitY=0;exitDx=0;exitDy=0;startArrow=classic;startFill=1;endArrow=none;endFill=0;" edge="1" parent="1" source="5EFGheqelh7LaM5aYG0a-4">
          <mxGeometry relative="1" as="geometry">
            <mxPoint x="240" y="190" as="targetPoint" />
          </mxGeometry>
        </mxCell>
        <mxCell id="5EFGheqelh7LaM5aYG0a-4" value="backend-2" style="text;html=1;fillColor=none;align=center;verticalAlign=middle;whiteSpace=wrap;rounded=0;strokeColor=#000000;" vertex="1" parent="1">
          <mxGeometry x="260" y="230" width="70" height="20" as="geometry" />
        </mxCell>
      </root>
    </mxGraphModel>
  </diagram>
</mxfile>
